PathFileType	4	(X/Y/Z)	C:\Users\Basilio\Documents\Thesis Gigler\squatting_fais\c3dfiles\039\SJ_pre1\markers_experimental.trc
DataRate	CameraRate	NumFrames	NumMarkers	Units	OrigDataRate	OrigDataStartFrame	OrigNumFrames
200.000000	200.000000	4	61	mm	200.000000	929	1858
Frame#	Time	FHD			LBHD			RBHD			C7			T10			CLAV			LSHO			LUUPA			LMUPA			LDUPA			LLEP			LMEP			LRAD			LUL			LRFIN			RSHO			RUPA1			RMUPA			RDUPA			RLEP			RMEP			RRAD			RUL			RUFIN			LASI			RASI			USACR			LSACR			RSACR			LTHI1			LTHI2			LTHI3			LTHI4			LLFC			LMFC			LTIB1			LTIB2			LTIB3			LTIB4			LLMAL			LMMAL			LHEE			LMT1			LMT2			LMT5			RTHI			RTHI2			RTHI3			RTHI4			RLFC			RMFC			RTIB1			RTIB2			RTIB3			RTIB4			RLMAL			RMMAL			RHEE			RMT1			RMT2			RMT5			
		X1	Y1	Z1	X2	Y2	Z2	X3	Y3	Z3	X4	Y4	Z4	X5	Y5	Z5	X6	Y6	Z6	X7	Y7	Z7	X8	Y8	Z8	X9	Y9	Z9	X10	Y10	Z10	X11	Y11	Z11	X12	Y12	Z12	X13	Y13	Z13	X14	Y14	Z14	X15	Y15	Z15	X16	Y16	Z16	X17	Y17	Z17	X18	Y18	Z18	X19	Y19	Z19	X20	Y20	Z20	X21	Y21	Z21	X22	Y22	Z22	X23	Y23	Z23	X24	Y24	Z24	X25	Y25	Z25	X26	Y26	Z26	X27	Y27	Z27	X28	Y28	Z28	X29	Y29	Z29	X30	Y30	Z30	X31	Y31	Z31	X32	Y32	Z32	X33	Y33	Z33	X34	Y34	Z34	X35	Y35	Z35	X36	Y36	Z36	X37	Y37	Z37	X38	Y38	Z38	X39	Y39	Z39	X40	Y40	Z40	X41	Y41	Z41	X42	Y42	Z42	X43	Y43	Z43	X44	Y44	Z44	X45	Y45	Z45	X46	Y46	Z46	X47	Y47	Z47	X48	Y48	Z48	X49	Y49	Z49	X50	Y50	Z50	X51	Y51	Z51	X52	Y52	Z52	X53	Y53	Z53	X54	Y54	Z54	X55	Y55	Z55	X56	Y56	Z56	X57	Y57	Z57	X58	Y58	Z58	X59	Y59	Z59	X60	Y60	Z60	X61	Y61	Z61	

930	4.645	112.2402954101563	1136.861083984375	-813.5901489257815	-35.96195983886719	1133.43310546875	-948.3043212890627	-21.52378273010254	1134.431518554688	-807.0413818359377	-102.1217422485352	1064.16259765625	-891.7781372070315	-374.1077880859376	932.4160766601565	-900.4405517578127	-69.60875701904298	906.1817016601565	-888.402282714844	-27.11984825134278	963.695495605469	-1069.386840820313	-141.7482147216797	948.0162353515627	-1263.687133789063	-154.6371612548828	899.766296386719	-1263.388793945313	-182.0092926025391	917.3707275390627	-1313.016357421875	-236.6599426269532	880.6207275390627	-1346.54833984375	-289.0225219726563	952.7298583984377	-1330.4794921875	-474.3713378906251	822.1958618164065	-1179.962890625	-456.6522216796876	754.8689575195314	-1210.098876953125	-451.6931152343751	809.1902465820315	-1115.118286132813	-56.64414978027345	959.2185058593752	-702.6914672851564	-202.3017883300782	1003.971374511719	-552.2039184570314	-218.3948211669922	958.5300903320315	-536.6624755859376	-252.7023162841797	994.2972412109377	-503.256072998047	-308.6197814941407	960.178649902344	-471.0509643554689	-356.3387145996094	1027.266723632813	-510.8080139160157	-483.277557373047	857.6035156250002	-696.0134277343751	-498.8230895996095	806.0035400390627	-642.6253662109376	-446.5949096679689	812.5776367187502	-739.2536010742189	-416.5714111328126	747.7301025390626	-1028.5361328125	-425.8586425781251	723.0085449218751	-808.1444091796877	-522.5213623046876	887.5965576171877	-902.5532226562502	-551.6818847656251	874.7497558593752	-933.0476684570315	-557.1000976562501	868.295104980469	-876.2823486328127	-382.7684631347657	611.8779296875001	-1136.099731445313	-299.6055297851563	591.8467407226564	-1146.80908203125	-268.2336425781251	626.8497924804689	-1138.035278320313	-273.6871032714844	536.1542968750001	-1137.185546875	-187.8187561035157	477.3919372558595	-1128.8916015625	-149.6415710449219	461.2147216796876	-1026.390258789063	-151.0693664550782	338.2431640625001	-1113.562377929688	-229.3027801513672	321.1227111816407	-1151.50634765625	-193.6058959960938	306.4198913574219	-1133.173706054688	-218.7459259033204	231.4362182617188	-1092.041137695313	-341.7295837402344	97.02482604980472	-1116.82080078125	-316.5656738281251	89.97409820556642	-1032.048461914063	-414.9713134765626	43.24542617797852	-1074.57080078125	-180.7982025146485	53.2004852294922	-1092.324462890625	-192.0227966308594	55.31285476684572	-1133.050048828125	-242.9698791503907	32.85067367553712	-1178.78662109375	-395.819793701172	626.3687744140626	-702.8068237304689	-329.7880554199219	629.2514038085939	-691.2261962890626	-311.2729492187501	655.4611816406251	-702.5173950195314	-281.2147216796876	562.5753784179689	-674.9145507812501	-207.1773986816407	466.6455383300782	-678.4026489257814	-166.1842803955078	462.8792114257814	-782.6638183593752	-212.1024627685547	273.5682373046876	-686.8988037109376	-311.4394531250001	233.5547332763672	-679.2709960937501	-268.6073913574219	213.3393859863282	-680.0472412109376	-264.2158203125001	160.2240447998047	-706.8168334960939	-353.5368652343751	91.0316848754883	-685.5606689453126	-319.0835571289063	94.67372894287111	-769.7587890625002	-423.0814819335939	41.62103652954102	-733.3065795898439	-190.0641326904297	50.2487144470215	-710.4656982421876	-200.294662475586	58.3323440551758	-666.1253051757814	-256.9613037109376	33.07221984863282	-618.4832153320314	
931	4.65	112.3012313842774	1136.162963867188	-813.7418212890627	-35.90045166015626	1132.668212890625	-948.5620117187502	-21.49563980102539	1133.693725585938	-806.7067871093752	-102.0185089111328	1063.506103515625	-891.9116210937502	-374.1039123535157	932.024841308594	-900.5847778320315	-69.68125152587892	905.3657226562502	-888.399597167969	-27.06006240844727	963.147644042969	-1069.510375976563	-141.7061157226563	947.1419677734377	-1263.84033203125	-154.6120147705078	898.8895263671877	-1263.42529296875	-182.0379943847657	916.6289062500002	-1313.08154296875	-236.726303100586	880.0693359375002	-1346.772216796875	-288.9684753417969	952.2347412109377	-1330.702880859375	-474.378631591797	821.882507324219	-1180.092895507813	-456.8443908691407	754.3261718750001	-1210.24072265625	-451.8117675781251	808.9585571289065	-1115.198608398438	-56.55026245117189	958.4827270507815	-702.8084106445314	-202.2548828125001	1003.200073242188	-552.2612915039064	-218.3891754150391	957.8782958984377	-536.5800170898439	-252.6732025146485	993.6275024414065	-503.2664489746095	-308.5946044921876	959.6411743164065	-471.307586669922	-356.2407531738282	1026.71337890625	-510.7633056640626	-483.2217712402345	857.1990966796877	-696.1073608398439	-498.9945678710939	805.6216430664065	-642.7872314453126	-446.8450317382814	812.3387451171877	-739.3110961914064	-416.682830810547	747.3408813476564	-1028.700073242188	-426.2940368652345	722.3811645507814	-808.1369628906252	-522.6155395507814	887.1407470703127	-902.609558105469	-551.7132568359376	874.4014892578127	-933.1865844726565	-557.1834106445314	867.9458007812502	-876.1800537109377	-382.7747192382813	611.7330932617189	-1136.15380859375	-299.1990051269532	591.3508300781251	-1146.759033203125	-268.3290405273438	626.6983642578126	-1138.0458984375	-273.6768798828126	536.0450439453126	-1137.223754882813	-187.7928619384766	477.3355712890626	-1128.900390625	-149.6270141601563	461.1731567382814	-1026.381225585938	-151.0845489501953	338.2333374023438	-1113.576171875	-229.2736968994141	321.0636291503907	-1151.463745117188	-193.6235351562501	306.3302001953126	-1133.048706054688	-218.8150329589844	231.3546905517579	-1092.1044921875	-341.7020568847657	97.03498077392581	-1116.824096679688	-316.5669860839844	89.98831939697267	-1032.03955078125	-414.9080200195314	43.21708297729493	-1074.564453125	-181.0295562744141	52.67346954345705	-1092.527954101563	-192.0965270996094	55.25053024291994	-1133.036743164063	-242.8628082275391	32.8514633178711	-1178.749267578125	-395.9270324707032	626.1923828125001	-702.8604736328126	-329.9097900390626	629.0847167968751	-691.2975463867189	-311.4371337890626	655.2468872070314	-702.6210937500001	-281.2504272460938	562.4626464843751	-674.9666137695314	-207.1920013427735	466.6533508300782	-678.4305419921876	-166.1365661621094	462.8678588867189	-782.7649536132815	-212.0988311767579	273.5521850585938	-686.9124145507814	-311.4428405761719	233.5044403076172	-679.2929687500001	-268.6018371582032	213.3516082763672	-680.0463256835939	-264.2011108398438	160.1915435791016	-706.8021240234376	-353.5519409179688	91.02743530273439	-685.5912475585939	-319.0766601562501	94.67236328125001	-769.7845458984377	-423.0565185546876	41.57908630371094	-733.3366699218751	-190.0477752685547	50.3182716369629	-710.4242553710939	-200.2906646728516	58.34427642822267	-666.1333007812501	-256.8777465820313	33.00751495361329	-618.4410400390626	
932	4.655	112.3105239868164	1135.344482421875	-813.6652832031252	-35.60654449462891	1131.926391601563	-948.730895996094	-21.28203392028809	1133.2275390625	-807.2134399414065	-101.9889907836914	1062.881713867188	-891.9365844726565	-374.1127624511719	931.601989746094	-900.7148437500002	-69.76851654052736	904.4871826171877	-888.5620117187502	-27.01376152038575	962.5914306640627	-1069.591674804688	-141.5565185546875	946.4266357421877	-1264.04345703125	-153.770004272461	898.1597900390627	-1264.2587890625	-182.2936248779297	916.2026977539065	-1313.337524414063	-236.7878570556641	879.4611816406252	-1346.993774414063	-288.2829589843751	951.5019531250002	-1330.85205078125	-474.4135131835939	821.669372558594	-1180.202880859375	-456.9311828613282	754.0226440429689	-1210.43310546875	-451.9582519531251	808.6275024414065	-1115.247192382813	-56.53968048095705	957.6810302734377	-702.9426269531251	-202.2131652832032	1002.723449707031	-552.3242797851564	-218.2435150146485	957.1914062500002	-536.7333984375001	-252.5115814208985	993.111999511719	-503.3107910156251	-308.5077209472657	959.1188964843752	-471.3529052734376	-356.0709533691407	1026.244750976563	-510.8489074707032	-483.0480041503907	856.7172851562502	-696.1193847656251	-499.2070617675782	805.277282714844	-642.8274536132814	-447.0042419433595	812.1689453125002	-739.4500732421876	-416.7967529296876	746.9680786132814	-1028.8662109375	-425.967987060547	721.8550415039064	-808.9503173828127	-522.7059936523439	886.7303466796877	-902.7339477539065	-551.8728637695314	874.0638427734377	-933.353698730469	-557.0846557617189	867.528015136719	-876.208190917969	-382.8244323730469	611.6196899414064	-1136.2138671875	-299.2148437500001	591.1983032226564	-1146.788818359375	-268.3190307617188	626.5493164062501	-1138.002807617188	-273.6615600585938	535.9052124023439	-1137.282104492188	-187.657943725586	477.3216552734376	-1128.858154296875	-149.553939819336	461.1807556152345	-1026.26318359375	-151.0074462890625	338.2131652832032	-1113.513061523438	-229.2427215576172	321.1183471679688	-1151.495849609375	-193.5756072998047	306.3182983398438	-1133.0498046875	-218.7508239746094	231.3706817626954	-1091.979248046875	-341.6893310546876	97.02053833007815	-1116.825927734375	-316.5785827636719	89.99958801269533	-1032.027465820313	-414.9827880859376	43.24956130981446	-1074.560546875	-181.0723419189453	52.66105270385744	-1092.576293945313	-192.0857086181641	55.32545471191408	-1133.058471679688	-242.8843688964844	32.81468963623048	-1178.755981445313	-396.0338134765626	625.9899902343751	-702.8701171875001	-330.1013183593751	628.9826049804689	-691.3309326171876	-311.5737915039063	655.1003417968751	-702.6840209960939	-281.3367919921876	562.4310913085939	-674.9817504882814	-207.2209625244141	466.6455078125001	-678.4226684570314	-166.243896484375	462.8635864257814	-782.7525024414065	-212.1697692871094	273.6555480957032	-686.8909301757814	-311.4808349609376	233.5378723144532	-679.3134155273439	-268.6444702148438	213.3925781250001	-680.0970458984376	-264.2031555175782	160.1770172119141	-706.8453369140626	-353.5630493164063	91.03711700439455	-685.5507202148439	-319.0289306640626	94.71166229248048	-769.775573730469	-423.0615539550782	41.5627784729004	-733.3236694335939	-190.2593841552735	50.71949386596681	-710.4595336914064	-200.2887115478516	58.3357620239258	-666.1357421875001	-256.8896179199219	33.03406143188477	-618.4437866210939	
933	4.66	112.3782348632813	1134.562866210938	-813.687683105469	-35.48047256469727	1131.232299804688	-948.8481445312502	-21.38009262084961	1132.516235351563	-807.480651855469	-101.9860992431641	1062.439331054688	-892.1027832031252	-374.2195739746094	931.1326293945315	-900.8376464843752	-69.6892547607422	903.9384765625002	-888.7904052734377	-26.8994369506836	961.909362792969	-1069.825439453125	-141.5211029052735	945.8630981445315	-1264.190795898438	-153.6982879638672	897.4221191406252	-1264.363159179688	-182.4715576171875	915.3868408203127	-1313.245727539063	-236.5882263183594	878.860290527344	-1347.1015625	-288.1353759765626	950.9738769531252	-1331.03125	-474.4163818359376	821.3349609375002	-1180.373657226563	-456.9253234863282	753.7028198242189	-1210.5234375	-452.1560058593751	808.3168945312502	-1115.368408203125	-56.53307342529298	957.070739746094	-703.0961914062501	-202.2127227783204	1002.16943359375	-552.3510742187501	-218.1390838623047	956.492858886719	-536.8922729492189	-252.4235992431641	992.5159912109377	-503.3742980957032	-308.4544067382813	958.4277954101565	-471.4937744140626	-355.9482421875001	1025.670532226563	-510.9621582031251	-483.226531982422	856.3551025390627	-696.1507568359376	-499.299041748047	805.0288696289065	-642.9195556640626	-447.1449279785157	811.9787597656252	-739.4840698242189	-417.174041748047	746.4929199218751	-1028.730834960938	-426.2083129882814	721.1296386718751	-809.576354980469	-522.8142089843751	886.367858886719	-902.8137207031252	-552.1397094726564	873.7857055664065	-933.4338989257815	-557.1940917968751	867.1785278320315	-876.2269287109377	-382.8467712402344	611.3002319335939	-1136.21337890625	-299.2552795410157	591.0932006835939	-1146.821166992188	-268.2278747558594	626.3778076171876	-1137.921142578125	-273.5810546875001	535.7247314453126	-1137.315063476563	-187.5985717773438	477.2681884765626	-1128.838500976563	-149.5357208251953	461.1693115234376	-1026.308837890625	-150.9764862060547	338.2167053222657	-1113.524169921875	-229.1563568115235	321.0914916992188	-1151.461547851563	-193.4856872558594	306.3881530761719	-1133.089111328125	-218.7430419921876	231.3037109375001	-1091.979248046875	-341.6845092773438	97.05353546142581	-1116.828247070313	-316.5803527832032	89.99922180175783	-1032.025146484375	-414.9063415527345	43.22637176513673	-1074.567016601563	-181.0308837890625	52.66956710815431	-1092.527099609375	-192.0500488281251	55.30002212524415	-1133.066650390625	-242.9254608154297	32.84725189208985	-1178.7431640625	-396.1658630371095	625.7536010742189	-702.8891601562501	-330.1789245605469	628.8742675781251	-691.2998657226564	-311.7439575195313	654.9971923828126	-702.7814941406251	-281.3796691894532	562.2926025390626	-675.0416870117189	-207.1751861572266	466.6737060546876	-678.5126342773439	-166.2204284667969	462.8590393066407	-782.727233886719	-212.1635894775391	273.6344909667969	-686.9009399414064	-311.4643554687501	233.5144500732422	-679.3395385742189	-268.5911865234376	213.4611968994141	-680.0545043945314	-264.2138671875001	160.2383270263672	-706.8706054687501	-353.5604248046876	91.05596923828126	-685.5771484375001	-319.0924072265626	94.6906204223633	-769.7778930664065	-423.0898437500001	41.56135177612305	-733.3486328125001	-190.2735290527344	50.6579933166504	-710.4624633789064	-200.2837982177735	58.35913467407228	-666.1298828125001	-256.9566345214844	33.1091537475586	-618.4726562500001	
